<svg id="Layer_1" data-name="Layer 1" xmlns="http://www.w3.org/2000/svg" viewBox="0 0 511.00129 511.22365"><defs><style>.cls-1{fill:#cb0101;}.cls-2{fill:#fefdfd;}.cls-3{fill:#fdf9f9;}</style></defs><path class="cls-1" d="M1424.72857,748.56555h-36.914c-.368-.9982-1.25294-.89743-2.05544-.96088a256.02723,256.02723,0,0,1-86.16668-22.603c-97.85114-44.37635-158.60305-150.5693-147.00539-257.41985q8.74068-80.52876,61.53049-142.04591c65.66935-76.34433,174.50332-107.99,269.79249-75.5357,99.01993,33.72495,157.43847,103.573,175.61082,206.8008,1.07647,6.11508.77067,12.41721,2.65446,18.40632v36.91334c-1.22888.50261-.90018,1.62573-.97338,2.55081-1.50972,19.08967-4.72257,37.937-11.12133,55.9533-34.97317,98.47051-103.8266,157.15574-206.96136,175.28925C1437.00926,746.98826,1430.71216,746.68057,1424.72857,748.56555Zm15.03821-325.91667c15.07385-18.79606,34.06068-32.04946,57.10215-38.98492,20.18466-6.07555,39.44916-3.7873,56.89941,8.79529,6.06229,4.37125,5.82325,4.35457,10.32-1.96407,2.05929-2.89358,1.82442-4.43564-.88737-6.77141a178.43126,178.43126,0,0,0-33.964-23.41153c-25.49989-13.28312-52.17361-18.89762-80.88525-13.32741-37.74028,7.32181-67.92378,27.05558-90.21664,57.56618-32.83594,44.94015-55.22148,95.06652-68.05438,149.30241-6.25431,26.43267-10.06293,53.18279-9.00931,80.46844.14992,3.883.82836,5.6859,5.58244,5.66355,48.54715-.22822,97.09578-.13966,145.644-.13966h4.38575c.45061-2.46467-.84072-4.14743-1.52918-5.95215-16.367-42.90452-26.60906-86.95126-24.34575-133.22626,1.30151-26.6107,8.81449-51.24062,24.87369-72.86388.7643-1.0291.92375-3.22782,3.18113-2.52429-.04927.78458-.4873,1.56653.2025,2.32809,5.27409,5.82311,10.52869,11.66387,15.99316,17.72519,2.13-3.73332,3.88024-6.91259,5.74689-10.022.83516-1.39125,1.15962-2.54068.11884-4.054-3.53735-5.14321-6.94339-10.37675-10.51767-15.75345-2.80514,2.51641-5.21764,4.76877-7.73978,6.89085C1441.88349,423.05342,1440.91288,424.79331,1439.76678,422.64888Zm-192.25191,164.326c-.6953,2.75093-.12309,3.78582,2.44729,4.038,7.43476.72933,14.84825,1.70811,22.24727,2.75089,2.56873.362,3.7896.01654,4.20928-2.99693q1.64725-11.828,4.11591-23.53511c.61992-2.94261-.02734-3.81834-2.89805-3.98253q-12.19254-.69718-24.36367-1.74511c-2.30124-.19808-2.853.79653-3.072,2.76828C1249.339,572.02932,1248.37517,579.77486,1247.51487,586.97491Zm49.8411-90.49668c1.441.35524,1.66577-.7234,2.002-1.65928,2.23957-6.23326,4.44777-12.47808,6.73389-18.69421.74329-2.02108-.368-2.54789-1.95826-3.13381-3.72834-1.37369-7.37814-2.95888-11.09091-4.37687-4.16188-1.58953-9.05793-5.18626-12.35813-4.08495-3.92363,1.3094-3.65588,7.88624-5.43938,12.08226-1.53178,3.6038-4.33115,8.17772-3.21487,10.99182,1.22008,3.07579,6.93393,2.87847,10.64756,4.21584C1287.504,493.55705,1292.45737,494.94158,1297.356,496.47823Zm128.53563,93.53048c1.78826,6.56433,3.375,12.45891,5.01,18.34009.39434,1.41849.75526,2.7688,2.791,2.87479,9.481.49356,18.95486,1.12337,29.06951,1.74358-3.613-7.42032-6.881-14.0717-10.08289-20.75477a3.28219,3.28219,0,0,0-3.3692-2.24549C1441.69846,590.0658,1434.08489,590.00871,1425.8916,590.00871ZM1336.49237,418.206a9.5436,9.5436,0,0,0,1.44473-1.16251c4.52531-5.28031,9.01945-10.58736,13.53158-15.879,1.45221-1.70309-.104-2.25694-1.13828-2.94528-5.37263-3.57582-10.80446-7.06454-16.1236-10.71767-1.59322-1.0942-2.50926-.79065-3.69086.54388q-6.4255,7.257-13.03247,14.35224c-1.27926,1.37093-1.61557,2.20969.23144,3.40493,5.83481,3.77576,11.57557,7.69679,17.35612,11.5565C1335.48384,417.63469,1335.92422,417.869,1336.49237,418.206Zm105.63107,130.20416c-.34642-6.084-.66234-11.49486-.9573-16.90684a3.41768,3.41768,0,0,0-1.7769-3.278c-6.70673-3.45718-13.39129-6.9573-20.55215-10.68606-.39788,6.27838-.75289,11.86734-1.10567,17.45642-.094,1.48958-.26961,2.93833,1.55926,3.70578C1426.70751,541.81387,1434.09743,544.99044,1442.12344,548.41014Zm-63.719-202.545c4.336,5.257,8.49166,10.19876,12.52266,15.24008,1.24465,1.55662,2.275,1.33258,3.77106.43875,4.83868-2.89088,9.71161-5.73107,14.65848-8.43115,2.0933-1.14252,2.02979-2.08345.52609-3.70822-3.49561-3.777-6.87654-7.66172-10.248-11.55126-1.22849-1.41724-2.34045-1.98252-4.23533-.93777C1389.89766,339.949,1384.28757,342.786,1378.40444,345.86516Zm60.861,150.48742c1.50955-6.0098,2.83105-11.41536,4.2393-16.7982a3.484,3.484,0,0,0-1.61349-4.18495c-4.93859-3.566-9.76923-7.28147-14.93621-11.16019-2.24145,4.51664-4.318,8.81977-6.516,13.06-.68712,1.32553-.99415,2.307.35616,3.43654C1426.86316,485.78134,1432.87323,490.92611,1439.26541,496.35258Zm7.68951-169.89139c1.01165,5.11321,1.96159,9.65143,2.78685,14.21221.34182,1.88912,1.01475,2.93315,3.20755,2.82736,6.29828-.30384,12.60573-.41341,18.90809-.6404,1.08616-.03912,2.58316.17917,2.31532-1.68157-.59018-4.10027-1.2393-8.19262-1.91966-12.279-.20942-1.2578-1.2734-1.32883-2.29879-1.37562C1462.50886,327.18445,1455.06381,326.837,1446.95492,326.46119Zm35.067,84.93547c2.36412-1.856,4.12768-3.77181,6.3062-4.8462,5.437-2.68137,4.59976-6.78592,3.16045-11.26384-.42363-1.31807-.9816-2.042-2.452-1.65558-4.769,1.2533-9.54124,2.49375-14.54786,3.80066C1477.07408,402.22448,1479.42675,406.58583,1482.02193,411.39666Zm46.48264-66.59052c-.26251,2.7692-.49692,4.87425-.65073,6.98518-.11582,1.58918-.64946,3.254,1.36675,4.29395,4.41521,2.2773,8.7647,4.68258,13.13166,7.05281,2.36485,1.28356,2.76361-.95,3.7007-2.09668.96845-1.18506,1.69886-2.30472-.17062-3.61785C1540.20677,353.437,1534.64709,349.2855,1528.50457,344.80614Zm12.04557,52.0695c.80109-2.87946-.746-4.02775-3.48955-4.43574-2.2697-.33754-4.50652-.91208-6.74639-1.43126-6.001-1.391-6.00173-1.27918-5.66615,4.86062.12215,2.23424,1.08777,2.77951,2.9434,2.973,3.27076.3411,6.56639.59943,9.786,1.22841C1540.18268,400.61871,1541.0143,399.60021,1540.55014,396.87564Z" transform="translate(-1151.17404 -237.3419)"/><path class="cls-2" d="M1438.86434,425.28055c-2.25826-.70491-2.41771,1.49381-3.182,2.52291-16.0592,21.62326-23.57218,46.25318-24.87369,72.86388-2.26331,46.275,7.9787,90.32174,24.34575,133.22626.68846,1.80472,1.97979,3.48748,1.52918,5.95215h-4.38575c-48.54821,0-97.09684-.08856-145.644.13966-4.75408.02235-5.43252-1.78058-5.58244-5.66355-1.05362-27.28565,2.755-54.03577,9.00931-80.46844,12.8329-54.23589,35.21844-104.36226,68.05438-149.30241,22.29286-30.5106,52.47636-50.24437,90.21664-57.56618,28.71164-5.57021,55.38536.04429,80.88525,13.32741a178.43126,178.43126,0,0,1,33.964,23.41153c2.71179,2.33577,2.94666,3.87783.88737,6.77141-4.49679,6.31864-4.25775,6.33532-10.32,1.96407-17.45025-12.58259-36.71475-14.87084-56.89941-8.79529-23.04147,6.93546-42.0283,20.18886-57.10167,38.98448l-.09213.09224c-.48958.83036-2.33964,1.14817-1.00446,2.666Z" transform="translate(-1151.17404 -237.3419)"/><path class="cls-3" d="M1247.51487,586.97491c.8603-7.20005,1.82416-14.94559,2.686-22.7025.21907-1.97175.77081-2.96636,3.072-2.76828q12.16737,1.04737,24.36367,1.74511c2.87071.16419,3.518,1.03992,2.89805,3.98253q-2.46193,11.68573-4.11591,23.53511c-.41968,3.01347-1.64055,3.35891-4.20928,2.99693-7.399-1.04278-14.81251-2.02156-22.24727-2.75089C1247.39178,590.76073,1246.81957,589.72584,1247.51487,586.97491Z" transform="translate(-1151.17404 -237.3419)"/><path class="cls-3" d="M1297.356,496.47823c-4.8986-1.53665-9.852-2.92118-14.67808-4.6592-3.71363-1.33737-9.42748-1.14-10.64756-4.21584-1.11628-2.8141,1.68309-7.388,3.21487-10.99182,1.7835-4.196,1.51575-10.77286,5.43938-12.08226,3.3002-1.10131,8.19625,2.49542,12.35813,4.08495,3.71277,1.418,7.36257,3.00318,11.09091,4.37687,1.59026.58592,2.70155,1.11273,1.95826,3.13381-2.28612,6.21613-4.49432,12.461-6.73389,18.69421C1299.02174,495.75483,1298.797,496.83347,1297.356,496.47823Z" transform="translate(-1151.17404 -237.3419)"/><path class="cls-3" d="M1425.8916,590.00871c8.19329,0,15.80686.05709,23.41843-.0418a3.28219,3.28219,0,0,1,3.3692,2.24549c3.20189,6.68307,6.46988,13.33445,10.08289,20.75477-10.11465-.62021-19.58855-1.25-29.06951-1.74358-2.03575-.106-2.39667-1.4563-2.791-2.87479C1429.26658,602.46762,1427.67986,596.573,1425.8916,590.00871Z" transform="translate(-1151.17404 -237.3419)"/><path class="cls-3" d="M1336.49237,418.206c-.56815-.33694-1.00853-.57129-1.42134-.84694-5.78055-3.85971-11.52131-7.78074-17.35612-11.5565-1.847-1.19524-1.5107-2.034-.23144-3.40493q6.61281-7.08658,13.03247-14.35224c1.1816-1.33453,2.09764-1.63808,3.69086-.54388,5.31914,3.65313,10.751,7.14185,16.1236,10.71767,1.03426.68834,2.59049,1.24219,1.13828,2.94528-4.51213,5.29167-9.00627,10.59872-13.53158,15.879A9.5436,9.5436,0,0,1,1336.49237,418.206Z" transform="translate(-1151.17404 -237.3419)"/><path class="cls-3" d="M1442.12344,548.41014c-8.026-3.4197-15.41593-6.59627-22.83276-9.70871-1.82887-.76745-1.65328-2.2162-1.55926-3.70578.35278-5.58908.70779-11.178,1.10567-17.45642,7.16086,3.72876,13.84542,7.22888,20.55215,10.68606a3.41768,3.41768,0,0,1,1.7769,3.278C1441.4611,536.91528,1441.777,542.32613,1442.12344,548.41014Z" transform="translate(-1151.17404 -237.3419)"/><path class="cls-3" d="M1378.40444,345.86516c5.88313-3.07919,11.49322-5.91614,16.995-8.94957,1.89488-1.04475,3.00684-.47947,4.23533.93777,3.37146,3.88954,6.75239,7.77422,10.248,11.55126,1.5037,1.62477,1.56721,2.5657-.52609,3.70822-4.94687,2.70008-9.8198,5.54027-14.65848,8.43115-1.49608.89383-2.52641,1.11787-3.77106-.43875C1386.8961,356.06392,1382.74048,351.12221,1378.40444,345.86516Z" transform="translate(-1151.17404 -237.3419)"/><path class="cls-3" d="M1439.26541,496.35258c-6.39218-5.42647-12.40225-10.57124-18.47024-15.6468-1.35031-1.12949-1.04328-2.111-.35616-3.43654,2.198-4.24023,4.27455-8.54336,6.516-13.06,5.167,3.87872,9.99762,7.59422,14.93621,11.16019a3.484,3.484,0,0,1,1.61349,4.18495C1442.09646,484.93722,1440.775,490.34278,1439.26541,496.35258Z" transform="translate(-1151.17404 -237.3419)"/><path class="cls-3" d="M1446.95492,326.46119c8.10889.37579,15.55394.72326,22.99936,1.063,1.02539.04679,2.08937.11782,2.29879,1.37562.68036,4.08638,1.32948,8.17873,1.91966,12.279.26784,1.86074-1.22916,1.64245-2.31532,1.68157-6.30236.227-12.60981.33656-18.90809.6404-2.1928.10579-2.86573-.93824-3.20755-2.82736C1448.91651,336.11262,1447.96657,331.5744,1446.95492,326.46119Z" transform="translate(-1151.17404 -237.3419)"/><path class="cls-3" d="M1439.67513,422.74068l.09213-.09224c1.14562,2.14487,2.11623.405,2.90014-.25457,2.52214-2.12208,4.93464-4.37444,7.73978-6.89085,3.57428,5.3767,6.98032,10.61024,10.51767,15.75345,1.04078,1.51328.71632,2.66271-.11884,4.054-1.86665,3.10943-3.6169,6.2887-5.74689,10.022-5.46447-6.06132-10.71907-11.90208-15.99316-17.72519-.6898-.76156-.25177-1.54351-.202-2.32739l-.19342.12685C1439.75853,424.802,1441.5944,424.47894,1439.67513,422.74068Z" transform="translate(-1151.17404 -237.3419)"/><path class="cls-3" d="M1482.02193,411.39666c-2.59518-4.81083-4.94785-9.17218-7.53326-13.965,5.00662-1.30691,9.77891-2.54736,14.54786-3.80066,1.47045-.38644,2.02842.33751,2.452,1.65558,1.43931,4.47792,2.27653,8.58247-3.16045,11.26384C1486.14961,407.62485,1484.38605,409.54064,1482.02193,411.39666Z" transform="translate(-1151.17404 -237.3419)"/><path class="cls-3" d="M1528.50457,344.80614c6.14252,4.47936,11.7022,8.63087,17.37776,12.61741,1.86948,1.31313,1.13907,2.43279.17062,3.61785-.93709,1.14665-1.33585,3.38024-3.7007,2.09668-4.367-2.37023-8.71645-4.77551-13.13166-7.05281-2.01621-1.03994-1.48257-2.70477-1.36675-4.29395C1528.00765,349.68039,1528.24206,347.57534,1528.50457,344.80614Z" transform="translate(-1151.17404 -237.3419)"/><path class="cls-3" d="M1540.55014,396.87564c.46416,2.72457-.36746,3.74307-3.17272,3.19506-3.21958-.629-6.51521-.88731-9.786-1.22841-1.85563-.19352-2.82125-.73879-2.9434-2.973-.33558-6.1398-.33488-6.25159,5.66615-4.86062,2.23987.51918,4.47669,1.09372,6.74639,1.43126C1539.80411,392.84789,1541.35123,393.99618,1540.55014,396.87564Z" transform="translate(-1151.17404 -237.3419)"/></svg>