<svg id="Layer_1" data-name="Layer 1" xmlns="http://www.w3.org/2000/svg" viewBox="0 0 495.94412 495.31578"><defs><style>.cls-1{fill:#cb0101;}</style></defs><path class="cls-1" d="M960.17948,227.59058h35.782c.50222,1.19575,1.60137.833,2.487.89572,18.85117,1.33595,37.437,4.52651,55.207,10.83641,95.468,33.89954,152.34733,100.66423,169.90879,200.65186.98181,5.59015.63054,11.37595,2.56252,16.81385v37.7161c-1.25448.431-.90191,1.53763-.98113,2.42594a250.69846,250.69846,0,0,1-21.61925,81.65521c-43.08768,95.21867-145.92186,154.20467-249.74189,142.95021-56.61575-6.13733-106.53441-27.9096-146.75456-68.32253-70.95681-71.297-94.20344-157.0355-63.76309-252.69023,30.73623-96.5845,99.97378-152.75,200.04336-170.36448C948.91837,229.17149,954.72172,229.51708,960.17948,227.59058Zm50.35906,179.21747c14.61181-18.22023,33.0166-31.06753,55.3519-37.79028,19.56575-5.88918,38.23943-3.67073,55.15438,8.52637,5.87577,4.23693,5.64383,4.22064,10.00351-1.90493,1.997-2.80587,1.76636-4.30041-.86136-6.56378a172.95269,172.95269,0,0,0-32.92264-22.69377c-24.71794-12.87595-50.57364-18.31806-78.40479-12.91842-36.58292,7.09762-65.84067,26.22661-87.44978,55.80213-31.82879,43.56279-53.528,92.15265-65.96717,144.72618-6.06243,25.62253-9.75419,51.55273-8.733,78.002.14535,3.76461.804,5.51115,5.41169,5.48952,47.05838-.22114,94.11819-.13532,141.17761-.13532h4.19789c.12145-.63269.30638-.98405.21958-1.245-.50659-1.523-1.05568-3.03292-1.62885-4.53259-15.891-41.57961-25.813-84.27856-23.61915-129.13522,1.26165-25.795,8.5443-49.67,24.111-70.63047.74084-.99755.89542-3.12887,3.08358-2.44678-.04782.76053-.47233,1.51847.19632,2.25672,5.11232,5.64461,10.20579,11.30634,15.50263,17.18186,2.06479-3.61908,3.76134-6.70083,5.57066-9.71485.8096-1.34861,1.12412-2.4628.11525-3.92969-3.42888-4.98555-6.73046-10.05869-10.19511-15.27058-2.71912,2.43926-5.05767,4.62253-7.50243,6.67958C1012.59037,407.20013,1011.64955,408.8866,1010.53854,406.80805Zm-169.45,135.52913.00782-.11846c-3.697-.24558-7.40561-.38293-11.08627-.77982-2.01264-.217-2.96525.28232-3.20635,2.40483-.87206,7.677-1.83575,15.344-2.83332,23.00586-.25017,1.92135.07472,2.89979,2.33787,3.13433,7.36391.76314,14.707,1.73654,22.04807,2.70506,2.19682.28985,3.4088.1208,3.80814-2.67059,1.13843-7.95778,2.63779-15.86807,4.17626-23.76174.41975-2.15377-.133-2.94321-2.23527-3.05766C849.76375,542.96259,845.42723,542.63013,841.08855,542.33718Zm40.19794-84.672c-.08479-1.44929-1.22824-1.645-2.27219-2.054-6.87555-2.69369-13.74935-5.39309-20.59241-8.16783-2.00771-.8141-3.09265-.69871-3.87291,1.714-2.02446,6.25979-4.29107,12.44632-6.64413,18.592-.77261,2.01787-.26117,2.84593,1.66121,3.41473,4.46442,1.32094,8.886,2.78624,13.34455,4.12762,3.51161,1.05647,7.49283,4.03633,10.4,2.65114,2.92449-1.39345,2.88258-6.42773,4.24651-9.82379C878.93205,464.6956,880.0489,461.16857,881.28649,457.66522Zm151.51575,133.63627c-3.5021-7.22208-6.78075-13.9502-10.02249-20.69606-.6664-1.38669-1.751-1.59845-3.14077-1.58963-7.3778.04705-14.756.02211-22.54535.02211,1.7431,6.37317,3.40772,12.37123,5.01311,18.38511.45432,1.70192,1.53827,2.13514,3.17075,2.22385C1014.24076,590.13384,1023.19892,590.714,1032.80224,591.30149ZM906.78482,371.91089c-1.377-.03623-1.86423,1.13282-2.577,1.90562-3.92024,4.25055-7.67163,8.66485-11.73234,12.77459-2.15477,2.18079-1.52312,3.15352.71914,4.5594,4.89052,3.06626,9.71061,6.26065,14.39952,9.62561,2.19958,1.57851,3.54626,1.81915,5.39233-.59689,3.40686-4.45871,7.10024-8.71341,10.87979-12.866,1.83937-2.0209,1.94879-3.11876-.56042-4.63852-4.93632-2.98974-9.68267-6.293-14.50884-9.46478C908.12751,372.76992,907.451,372.34058,906.78482,371.91089ZM990.243,498.76522c-.38921,6.14367-.75447,11.42421-1.03744,16.70915-.07248,1.35423-.57913,2.91735,1.28125,3.70473,7.27887,3.08062,14.54045,6.20214,22.33117,9.53188-.31095-5.75977-.56582-10.716-.85334-15.67039-.09308-1.60409-.20308-3.111-2.00086-4.02134C1003.56577,505.77949,997.232,502.413,990.243,498.76522ZM951.05943,332.377c4.19782,5.09106,8.22127,9.88014,12.12781,14.76275,1.19678,1.49579,2.19,1.31886,3.653.44348,4.68846-2.8053,9.41557-5.55224,14.20981-8.17158,2.00431-1.09505,2.00889-1.99762.53206-3.59076-3.39155-3.65861-6.666-7.4272-9.93549-11.19668-1.18494-1.36616-2.25765-1.94592-4.10143-.92967C962.21129,326.63448,956.77336,329.38575,951.05943,332.377Zm47.0622,114.73031c-2.19633,4.42252-4.20105,8.59955-6.34827,12.702-.69509,1.328-.85452,2.25434.42074,3.3193,5.88311,4.91294,11.7132,9.8894,17.87323,15.10638,1.46063-5.83495,2.76569-11.08592,4.09392-16.331a3.09764,3.09764,0,0,0-1.22836-3.741C1008.03643,454.61255,1003.23083,450.93676,998.12163,447.10727Zm19.41284-133.52259c.97316,4.99323,1.91114,9.51486,2.71448,14.0603.35906,2.03156,1.46547,2.51722,3.37018,2.43068,5.94536-.27015,11.89771-.38381,17.8454-.61a4.26634,4.26634,0,0,0,2.20639-.6069c.65118-.45925-1.54553-13.52961-2.29428-13.96116a3.18193,3.18193,0,0,0-1.39617-.27959C1032.61347,314.26945,1025.24571,313.93675,1017.53447,313.58468Zm33.96058,82.25343c2.12989-1.6491,3.86145-3.45765,5.96811-4.52768,5.05377-2.567,4.849-6.36979,3.26263-10.85283-.53017-1.49815-1.06663-2.15046-2.71814-1.70981-3.87458,1.0338-7.78066,1.94938-11.67162,2.92223-1.528.382-2.09075,1.01874-1.138,2.65594C1047.36285,388.04575,1049.34217,391.87349,1051.49505,395.83811Zm45.04527-64.50313c-.27984,3.05857-.47726,5.12634-.65554,7.19575-.12275,1.42488-.40439,2.82805,1.303,3.71453,4.274,2.21907,8.50691,4.51906,12.72414,6.8449,2.28259,1.25886,2.72133-.793,3.60935-1.94268.87122-1.12793,1.796-2.20876-.06564-3.52052C1107.95774,339.75306,1102.5648,335.73031,1096.54032,331.335Zm-3.54377,48.03338c-1.05412,3.5671,1.06607,4.39818,4.00813,4.60366a37.56394,37.56394,0,0,1,7.12242.78016c3.55381.95774,4.41871-.25666,4.27194-3.6735-.09851-2.293-1.07365-3.04064-3.00324-3.43523-2.80692-.574-5.62121-1.151-8.37814-1.92082C1093.6618,374.78555,1092.09988,375.64684,1092.99655,379.36836Z" transform="translate(-730.18268 -227.59058)"/></svg>