<svg id="Layer_1" data-name="Layer 1" xmlns="http://www.w3.org/2000/svg" viewBox="0 0 541.77838 324.40123"><defs><style>.cls-1{fill:#fefefe;}.cls-2{fill:#86c21c;}.cls-3{fill:#cdf095;}.cls-4{fill:#e8e855;}.cls-5{fill:#1d686d;}.cls-6{fill:#a4d43c;}.cls-7{fill:#e9e225;}.cls-8{fill:#1f9a57;}.cls-9{fill:#52dc60;}.cls-10{fill:#cad727;}.cls-11{fill:#69b21f;}.cls-12{fill:#d9de26;}</style></defs><path class="cls-1" d="M1013.07185,673.71184l.04594.04531c2.80522,3.3568,6.72745,5.188,10.28492,7.51735,2.44046,3.08257,5.91308,4.41636,9.50355,5.46066,21.18961,6.16284,41.06109,2.77985,59.54519-8.81359q25.59656-16.05444,50.79478-32.74071c15.0887-9.96722,30.13327-19.87528,42.879-33.1017,7.96112-8.26136,11.13271-17.28062,10.75607-28.18579,2.10588-1.47208,1.386-3.71143,1.40517-5.65565.10837-11.0001.34077-22.00608.10638-33.00106-.66319-31.10033,1.052-62.21789-1.03278-93.31513-.87437-13.0428-7.30025-22.43469-17.44522-29.65541a254.57637,254.57637,0,0,0-28.73374-17.14355c-21.55588-11.41761-41.47186-25.6932-63.36361-36.53567-4.704-2.32978-9.63029-3.991-15.03917-2.8573-3.11891-.00741-6.005,1.05119-8.927,1.94594l-1.28189.73071c-1.11243.36349-2.39641.37831-3.11984,1.53239-11.57243,6.81954-18.47465,17.49092-18.73951,30.3019-.82026,39.67524-.372,79.37663-.4162,119.06788-1.87437.424-3.13114-.82185-4.59111-1.61934-5.55712-3.03541-11.15407-5.998-16.73614-8.98779-6.39158-5.16365-14.06611-8.16671-20.99729-12.43563-26.02438-16.02848-53.51193-26.92664-84.9685-23.39781-11.7,1.31252-23.48108,3.074-33.92787,8.44694-18.21394,9.36778-35.81056,19.92636-53.82955,29.68419-5.80349,3.14272-10.8312,8.02012-17.86467,8.676q.15964-11.55114.32249-23.1035.07714-1.29211.15427-2.5842c-.00255-13.46442.82519-26.93618-.35743-40.39018.48022-11.11775.51207-22.23493-.04362-33.35132,1.2994-7.264.06811-14.49222-.31111-21.732-.54574-10.41865-5.8846-18.79763-12.63884-25.93055-8.38443-8.85446-18.6366-6.65794-28.54624-2.4186-9.823,4.20228-18.64375,10.25093-27.792,15.662-20.2329,11.96744-41.10185,22.82635-60.99583,35.39135-12.73215,8.04161-19.93409,19.48533-20.12605,34.185-.4948,37.88869-.16434,75.78814-.16356,113.68326q-.00618,2.85611-.01236,5.71225c-.88084,13.45144,1.99659,25.98679,9.79207,37.07406,10.76228,15.30679,26.81777,23.69728,42.87253,32.015l.27228.22013c.17358,1.32493,1.35194,1.66578,2.254,2.2426q23.79253,15.21393,47.60353,30.399c15.594,9.92653,32.32243,15.1887,51.00084,12.05569,10.1748-1.70661,19.93877-4.43639,27.56947-12.01113a7.37894,7.37894,0,0,0,2.06137-.75543c16.94285-13.04907,33.81321-26.19246,50.7928-39.19348,21.73814-16.6446,42.54068-17.62543,65.87629-3.55029,6.66694,4.02123,11.88325,10.13257,19.27273,13.05129l.29436.23853a15.511,15.511,0,0,0,8.62856,6.4457l1.58049,1.24736a2.3555,2.3555,0,0,0,2.792,2.09087l3.01339,1.80318a11.1,11.1,0,0,0,5.80862,4.50606q1.28523.96608,2.57045,1.93211c.01818,1.25394.91535,1.42958,1.87635,1.5269a37.12192,37.12192,0,0,0,8.47286,6.2389C1011.431,673.41469,1012.19433,673.64,1013.07185,673.71184Z" transform="translate(-656.71548 -365.36451)"/><path class="cls-2" d="M656.86849,574.79854q.0062-2.85611.01185-5.71057a3.09211,3.09211,0,0,0,.95246-.19295q1.11709,1.282,2.23535,2.56a25.7871,25.7871,0,0,0,9.37116,12.84853c5.7951,4.42774,16.77231,3.93663,20.965-.47244a11.27954,11.27954,0,0,0,5.76178-1.92343c6.95356-3.91245,13.99694-7.67387,20.84991-11.75464,12.26528-7.30382,24.87343-13.93323,37.6427-20.31326,7.947-3.97062,15.45366-8.8208,23.158-13.27628.73812,2.23018-3.63755,3.90879-1.13072,5.882,2.80433,2.20737,2.15426,4.87108,2.24948,7.5483.46154,12.9777-1.06567,26.01367,1.128,38.94045q2.22348,13.10256,4.48848,26.19786c-6.14758,3.72166-12.00235,8.102-18.51829,10.99665-7.93419,3.52461-14.514,10.17388-23.89868,10.4966-1.947.067-4.63363.51287-5.65568,1.81851-4.53852,5.79805-10.35255,4.92118-16.333,3.91854-2.50889-.4206-5.01331-.86778-7.57459-1.31238-.13309,2.13159,2.81618,2.182,2.38658,4.23124q-2.5752-.58663-5.15041-1.17323l-.27439-.21959c-4.67709-6.43957-11.02124-11.29694-17.52192-15.36813-10.85124-6.79584-19.87071-14.977-26.92173-25.66673a35.65884,35.65884,0,0,1-6.12751-20.24739C658.96271,579.80289,659.10071,576.99134,656.86849,574.79854Zm6.6464,9.9639-.56539-.40859.40616.56854c4.01616,8.02659,18.16535,12.35906,25.11183,6.364-8.76406,1.89392-15.01606-1.71526-21.345-5.12165A30.04737,30.04737,0,0,0,663.51489,584.76244Z" transform="translate(-656.71548 -365.36451)"/><path class="cls-3" d="M807.38132,519.67523c7.03092-.65613,12.05863-5.53353,17.86212-8.67625,18.019-9.75783,35.61561-20.31641,53.82955-29.68419,10.44679-5.373,22.2279-7.13442,33.92787-8.44694,31.45657-3.52883,58.94412,7.36933,84.9685,23.39781,6.93118,4.26892,14.60571,7.272,20.99736,12.43552-1.78544,2.17338-3.46639.43931-4.93431-.33654q-7.15349-3.78093-14.114-7.92325c-6.017-3.59933-18.29307-7.91873-21.77791-7.47566.0384.16824.018.41092.12359.49419,17.194,13.56444,35.99983,24.75608,54.25515,36.758,1.45289.95518,1.961.0434,2.10975-1.29473,2.49974,1.32219,2.96226,3.68623,1.69146,5.678-1.25789,1.97165-3.50028,3.7377-6.173,3.00942-8.75749-2.3863-17.90962-3.20715-26.1919-7.53558a137.46955,137.46955,0,0,0-20.41049-8.77635c-12.757-4.21482-26.08429-5.96449-39.41991-7.06-29.63605-2.43454-58.295,2.72907-86.11149,12.58306-12.255,4.34136-24.41739,7.86063-37.55842,6.17416,4.569-7.9308,12.72529-12.128,19.16845-18.084,5.25531-4.858,11.5913-8.52445,17.95838-11.941,1.42082-.76241,2.66132-1.84943,1.73239-3.52205-.74311-1.33806-2.30026-1.0903-3.5201-.50671-9.774,4.67623-18.874,10.63152-29.3091,14.11078-5.54578,1.84905-10.38811,5.74228-15.687,8.44018C809.61643,522.09487,806.31953,524.3259,807.38132,519.67523Z" transform="translate(-656.71548 -365.36451)"/><path class="cls-4" d="M657.83339,568.893a3.04479,3.04479,0,0,1-.953.19493c-.00027-37.8968-.33073-75.79625.16407-113.68494.192-14.69968,7.3939-26.1434,20.12605-34.185,19.894-12.565,40.76293-23.42391,60.99583-35.39135,9.14825-5.41109,17.969-11.45974,27.792-15.662,9.90964-4.23934,20.16181-6.43586,28.54624,2.4186,6.75424,7.13292,12.0931,15.5119,12.63884,25.93055.37922,7.23977,1.61051,14.468.31275,21.73184-5.2519,1.80649-6.39194-.65438-6.13807-5.42133.3042-5.71172.22772-11.45844.0172-17.179-.26615-7.23334-2.00661-8.85456-8.73054-8.85683q-.18-1.71291-.35783-3.42573c.4974-3.6246-1.46607-3.53483-4.08772-2.84255-6.75607,1.784-6.44825,7.00167-7.29916,12.58526-2.69116,17.65931-3.28292,35.44756-3.9335,53.20193-.55671,15.193,3.01567,30.29774,2.104,45.58474-.25394,4.25793-.119,8.44365,1.88652,12.53444,1.0553,2.15259,1.18268,5.4928,4.006,5.12607,3.05871-.39732,2.91942-3.92015,2.90871-6.36325-.05711-13.02542,1.71937-25.98051,1.23207-39.03006-.32672-8.74983-.07874-17.5225-.01241-26.28438.01354-1.78859-.59025-3.78315,1.12063-5.23907,1.83283,1.647,1.08658,3.83263,1.09405,5.79.05681,14.89022.02953,29.78076.02842,44.6712a40.96157,40.96157,0,0,1,.97443,14.93977c-1.20786,9.17879-2.69133,18.2962-1.063,27.56469q-5.57582,3.34029-11.15163,6.68063a30.31512,30.31512,0,0,1-2.22-13.31055c.80257-5.39315-2.49565-9.00144-5.47235-12.81037-4.56475-5.841-9.09309-11.738-9.12954-19.69159-.77476-13.77729.98065-27.48271,1.31728-41.23112.19315-7.88938,2.23069-15.7189,3.14518-23.60924,1.06965-9.22892,6.85465-16.751,8.91708-25.56444.75061-3.2076,3.48809-7.60728-.45191-9.6249-3.41938-1.751-6.30763,2.0076-8.743,4.55863-4.89644,5.12893-9.73407,10.57747-16.34274,13.31824a364.197,364.197,0,0,0-36.31043,16.90446,160.87993,160.87993,0,0,1-16.07311,7.64287c-3.31663,1.375-7.36381,2.40872-9.42161,6.06764l-1.17853.06275a1.96169,1.96169,0,0,0-2.20913,2.1675c-2.93666.37956-5.23054,2.25248-7.84855,3.37234a8.63813,8.63813,0,0,1-8.43173-.82205c-4.23481-2.77328-6.82446-1.429-8.05249,3.43879-2.55723,10.13657-3.34871,20.54693-3.49747,30.85582C657.60448,506.96355,657.85494,537.93028,657.83339,568.893Z" transform="translate(-656.71548 -365.36451)"/><path class="cls-5" d="M986.73983,654.27757q-.79025-.62365-1.57759-1.24548c-1.87221-3.48843-4.581-5.8645-8.63146-6.44758l-.29193-.23682c-.05014-1.9447-1.59592-2.7847-2.86542-3.802q-8.14534-6.52716-16.317-13.0174a6.36815,6.36815,0,0,0-.09768-5.69583c-1.35859-2.837-2.27428-8.28705.43544-8.9049,4.18117-.95337,8.09954-3.59848,13.17144-2.31982,10.18991,2.569,20.89782.80666,31.282,2.43852a4.58553,4.58553,0,0,0,3.22632-.493c4.62944-3.74967,9.84558-3.6997,14.78667-1.61729,6.61847,2.78942,14.408-2.94061,20.44444,3.16115.39834.40268,2.06779.19459,2.62919-.30689,6.33942-5.66328,4.82228.81593,5.13577,3.47187.40995,3.47342-.32191,7.21467,3.61433,9.25372-.05648,6.6701.1186,13.35206-.22238,20.00763-.54446,10.62738-3.0291,20.51109-12.34652,27.23a24.68058,24.68058,0,0,0-8.22381-1.22753c-5.93276.09-11.89167.439-17.774-.76545l-.04457-.04956c-.11521-1.09761-.85931-1.34866-1.79968-1.33529a36.9628,36.9628,0,0,1-8.46467-6.23633c.29534-1.64037-.85713-1.50779-1.88454-1.52947-.85682-.644-1.71363-1.28806-2.56285-1.92756-.33276-3.56189-2.65541-4.57586-5.81622-4.51061q-1.50671-.90159-3.00921-1.801C989.49589,654.48806,988.14179,654.35086,986.73983,654.27757Z" transform="translate(-656.71548 -365.36451)"/><path class="cls-3" d="M1072.77832,365.7296c5.40888-1.13372,10.33518.52752,15.03917,2.8573,21.89175,10.84247,41.80773,25.11806,63.36361,36.53567a254.57637,254.57637,0,0,1,28.73374,17.14355c10.145,7.22072,16.57085,16.61261,17.44522,29.65541,2.08473,31.09724.36959,62.2148,1.03278,93.31513.23439,10.995.002,22.001-.10638,33.00106-.01916,1.94422.70071,4.18357-1.40373,5.65439a.7217.7217,0,0,1-.57694.498c-1.06626-4.782-.10515-9.57231-.10563-14.35461-.00315-30.78873-.13534-61.57862.10741-92.3655.07064-8.96245-.9184-17.82718-1.25218-26.7447-.16163-4.317-2.0466-8.27008-3.67392-12.219-.54579-1.3244-1.70426-2.13226-3.15783-1.44854-1.28052.60238-1.0553,1.82641-.57454,2.89955a25.88673,25.88673,0,0,1,1.8682,10.91713c-.0781,29.66893-.00821,59.33848-.17955,89.00667-.031,5.37133-.96009,10.7375-1.47453,16.106q-.69383-.00394-1.38751-.00786c-.49219-4.29153-1.62567-8.624-1.35425-12.86676.76095-11.898-.79716-23.73055-.83755-35.60663-.05134-15.05452.37582-30.18021-.538-45.23482-.3698-6.09236-1.08721-12.32539-4.46766-17.76937q-.17528-1.06659-.35049-2.13317c4.337.27639,5.41275-.9865,4.01873-5.57964-1.36753-4.50628-4.536-6.58868-7.70058-9.292-8.819-7.53373-18.74888-13.38057-28.9734-18.54077-7.35906-3.714-15.93408-4.04769-23.23666-9.075-15.24457-10.49468-31.29659-19.81848-47.00809-29.61782.82978-1.52846,2.87368.13239,3.52461-1.4421C1077.64448,367.02679,1074.21009,368.516,1072.77832,365.7296Z" transform="translate(-656.71548 -365.36451)"/><path class="cls-6" d="M1034.62845,528.924c-.1482,1.33735-.65628,2.24913-2.10917,1.29395-18.25532-12.00193-37.06112-23.19357-54.25515-36.758-.10559-.08327-.08519-.326-.12359-.49419,3.48484-.44307,15.76092,3.87633,21.77791,7.47566q6.94356,4.15362,14.114,7.92325c1.46792.77585,3.14887,2.50992,4.93431.33654,5.582,2.98993,11.179,5.95249,16.73607,8.9879,1.46.79749,2.71674,2.04332,4.59046,1.61455.322,1.80586,1.73321,1.88355,2.95554,1.46726,2.13542-.72722,1.10121-2.82474,1.51752-4.306a5.89876,5.89876,0,0,1,3.69879.98705c.95608.76727,1.7184,2.425,3.17509,1.76752,1.7276-.77975.8741-2.637.96545-4.02342.4388-6.66.77738-13.32655,1.1814-19.98894.06322-1.0423-.31869-2.49234,1.161-2.75994,1.399-.25294,3.161.77716,2.9653,1.872-1.2122,6.78319,3.53694,12.21457,3.8504,18.73823.33166,6.90354,2.27537,14.09341,8.72274,17.78011a239.22033,239.22033,0,0,0,29.49418,14.58114c18.84044,7.55524,37.57956,15.22327,55.59406,24.65068,6.97612,3.65073,11.42741,9.10547,14.82449,15.82132-5.49578.54495-10.72341.02-15.52362-3.13711-13.68612-9.00147-28.24069-16.51793-42.48728-24.55834-3.54755-2.00215-7.12138-4.17974-11.5049-3.71181-.1837-.51659-.21146-1.30089-.57345-1.51138q-26.27355-15.27882-52.63448-30.40683a3.96942,3.96942,0,0,0-5.11873.73152c-5.511-.84315-9.8489-4.234-14.61683-6.69691-1.63967-.847-3.60639-2.09736-4.87547.18881-1.08437,1.95328.44848,3.57772,1.87953,4.73881C1028.09688,524.08553,1031.39162,526.46916,1034.62845,528.924Z" transform="translate(-656.71548 -365.36451)"/><path class="cls-6" d="M1196.30606,584.39772a.74309.74309,0,0,0,.57667-.50561c.3752,10.90643-2.79639,19.92569-10.75751,28.18705-12.74572,13.22642-27.79029,23.13448-42.879,33.1017q-25.21072,16.65363-50.79478,32.74071c-18.4841,11.59344-38.35558,14.97643-59.54519,8.81359-3.59047-1.0443-7.06309-2.37809-9.50355-5.46069q1.72.02981,3.43963.05885c5.04794,3.50273,11.0174,2.53722,16.60179,3.53576,12.96395,2.31818,24.64434-.97067,35.81993-7.211,13.30876-7.43141,25.28316-17.05895,39.47081-23.12453,5.64631-2.414,11.61553-5.11071,15.67724-10.29395,5.43913-2.11846,9.25033-6.42247,13.54756-10.07392l.24921-.48516q-.12753.23965-.25516.47925c-4.0459-.6063-7.75189,1.72169-11.69463,1.716-.33245-1.46432.44027-1.97394,1.14444-2.59149,7.50685-6.58361,16.39693-11.20176,24.38845-17.11048,3.7935-2.80474,5.78979-7.84172,11.0203-8.78907-.11267,3.29487-4.56362,4.4736-4.06013,8.18052,1.974.49009,3.17734-.79551,4.49681-1.71352,8.02957-5.58626,15.41074-11.64186,16.05586-22.49286C1192.21642,589.61869,1194.841,587.59024,1196.30606,584.39772Z" transform="translate(-656.71548 -365.36451)"/><path class="cls-6" d="M780.05427,534.28215q5.57582-3.3403,11.15268-6.67947c7.29785-2.0752,10.67917-7.19179,11.26409-14.47964-.38172-4.90343.6847-9.68912,1.1829-14.521a2.17073,2.17073,0,0,1,2.38573-2.30857l1.65841.27923q-.15967,11.55112-.318,23.10243c-1.06051,4.65078,2.23639,2.41975,3.41827,1.818,5.29891-2.6979,10.14124-6.59113,15.687-8.44018,10.4351-3.47926,19.53514-9.43455,29.3091-14.11078,1.21984-.58359,2.777-.83135,3.5201.50671.92893,1.67262-.31157,2.75964-1.73239,3.52205-6.36708,3.41654-12.70307,7.083-17.95838,11.941-6.44316,5.956-14.59947,10.15319-19.168,18.08758-5.81747-.26226-12.36632,1.3697-15.52467-5.92291-.00517-.01193-.89621.35911-1.37268.5522-5.62634,1.31525-11.81734,6.53785-10.96123,10.02737,1.56076,6.36157.13715,12.508-.03678,18.77507-.50078,18.04436.33194,36.12107-1.28945,54.14371a7.97416,7.97416,0,0,0-3.35887,3.40239q-.55923.5559-1.11883,1.11164-1.12076.02165-2.24152.04332-2.24554-13.09881-4.48824-26.19806c-2.19366-12.92678-.66645-25.96275-1.128-38.94045-.09522-2.67722.55485-5.34093-2.24948-7.5483-2.50683-1.97322,1.86884-3.65183,1.13086-5.88105Q778.93571,535.42423,780.05427,534.28215Zm8.27643,3.45792c-5.99252,6.62284-5.9078,6.6239-6.006,14.383a120.15319,120.15319,0,0,1-.58028,12.22295c-1.14245,9.99164.32015,19.97518,1.81639,29.87021.33276,2.20057.98459,5.36856,4.26625,4.82091,3.02486-.50486,2.22823-3.46455,2.23807-5.57535.06871-14.73195.00514-29.46469.1184-44.19612C790.21226,545.5228,789.22567,542.05294,788.3307,537.74007Z" transform="translate(-656.71548 -365.36451)"/><path class="cls-4" d="M1072.77832,365.7296c1.43177,2.78644,4.86616,1.29719,6.77407,3.29161-.65093,1.57449-2.69483-.08636-3.52461,1.4421,15.7115,9.79934,31.76352,19.12314,47.00809,29.61782,7.30258,5.02726,15.8776,5.361,23.23666,9.075,10.22452,5.1602,20.1544,11.007,28.9734,18.54077,3.16454,2.70336,6.333,4.78576,7.70058,9.292,1.394,4.59314.31831,5.856-4.015,5.58007-3.31466-1.71379-2.993-6.15832-6.48755-8.05362-5.69334-3.08772-10.94788-6.97116-16.49117-10.34918-19.96245-12.165-40.72864-22.90026-61.60021-33.35667-8.34926-4.18283-16.78785-9.89087-27.17019-7.68624-4.039-1.94929-7.00651-5.24909-10.28859-8.15261q1.27788-2.516,2.55584-5.032c.72343-1.15408,2.00741-1.1689,3.12025-1.53148q.64115-.36491,1.28148-.73163C1066.77327,366.78079,1069.65941,365.72219,1072.77832,365.7296Z" transform="translate(-656.71548 -365.36451)"/><path class="cls-3" d="M1059.44961,369.93864q-1.27794,2.516-2.55488,5.03457c-8.083,7.78142-11.54779,17.75412-11.77136,28.493-.466,22.38372-.14971,44.78368-.15488,67.177q-.02059,2.1639-.04121,4.32783-.00119,1.14639-.00233,2.29275l-.15864,39.20116c-.41631,1.48125.6179,3.57877-1.51752,4.306-1.22233.41629-2.63353.3386-2.95554-1.46726.0448-39.68646-.40341-79.38785.41685-119.06309C1040.975,387.42956,1047.87718,376.75818,1059.44961,369.93864Z" transform="translate(-656.71548 -365.36451)"/><path class="cls-3" d="M957.0536,629.52755q8.16236,6.506,16.31983,13.01812c1.2695,1.01732,2.81528,1.85732,2.86542,3.802-7.39191-2.92043-12.60822-9.03177-19.27516-13.053-23.33561-14.07514-44.13815-13.09431-65.87629,3.55029-16.97959,13.001-33.85,26.14441-50.7928,39.19348a7.36383,7.36383,0,0,1-2.06087.75489q-3.00273.54831-6.0069,1.09758-.11308-.81357-.22513-1.62676c7.53952-3.80394,13.41655-9.87,20.13112-14.79648,14.01161-10.28034,28.31088-20.1962,41.18556-31.94188a56.96214,56.96214,0,0,1,27.22667-9.2096,16.87265,16.87265,0,0,0,8.42333.01446l4.9314.52508c.3997.94085,1.05691.9997,1.86447.54337C943.40449,622.68684,950.0434,626.59262,957.0536,629.52755Z" transform="translate(-656.71548 -365.36451)"/><path class="cls-7" d="M792.60581,388.78851c6.72283.00221,8.46329,1.62343,8.72944,8.85677.21052,5.72059.287,11.46731-.0172,17.179-.25387,4.76695.88617,7.22782,6.13807,5.42133.554,11.11654.5222,22.23372.04339,33.35181-2.04515.05123-2.63,1.25532-2.89546,3.12832-.33011,2.32944-1.52994,4.06164-4.32893,3.72862-.39767-6.45351,1.57943-13.28654-.94733-19.28694-2.42845-5.767-2.38989-11.4364-2.42418-17.29941-.02822-4.82524-.07825-9.652.014-14.47559.046-2.40731-.47759-4.05756-3.33354-3.80482-.35316-1.90132.731-4.09828-1.17246-5.67983-.19212-2.281.48829-4.6317-.54728-6.84542Z" transform="translate(-656.71548 -365.36451)"/><path class="cls-6" d="M832.22731,677.89113q3.00347-.54918,6.00642-1.09778c-7.6312,7.57528-17.39517,10.30506-27.57,12.01167-18.67841,3.133-35.40686-2.12916-51.00084-12.05569q-23.82369-15.16509-47.60353-30.399c-.90208-.57682-2.08044-.91767-2.25275-2.24246q2.57709.58689,5.1526,1.17442c1.42358,2.87352,4.65819,2.78669,6.93869,4.25234,11.81493,7.593,23.53678,15.33284,35.42082,22.81579,18.11935,11.40921,37.36756,17.14793,58.868,11.24178,2.07722-.57059,4.10657-.57131,4.31981-3.3039A21.80238,21.80238,0,0,0,832.22731,677.89113Z" transform="translate(-656.71548 -365.36451)"/><path class="cls-6" d="M656.86849,574.79854c2.23222,2.1928,2.09422,5.00435,2.09386,7.80766a35.65884,35.65884,0,0,0,6.12751,20.24739c7.051,10.68972,16.07049,18.87089,26.92173,25.66673,6.50068,4.07119,12.84483,8.92856,17.52192,15.36813-16.05518-8.31857-32.11067-16.70906-42.87295-32.01585C658.86508,600.78533,655.98765,588.25,656.86849,574.79854Z" transform="translate(-656.71548 -365.36451)"/><path class="cls-4" d="M800.27519,460.45418c2.79892.33323,3.99875-1.399,4.32886-3.72841.26541-1.873.85031-3.07709,2.89546-3.12832,1.18121,13.45366.35347,26.92542.35711,40.39008a1.91606,1.91606,0,0,0-1.817,2.30593,2.1709,2.1709,0,0,0-2.38595,2.30816q-1.66215-.04823-3.32385-.09562l-.05263-10.01551c1.7123-1.46306.93243-3.45659,1.115-5.24376C802.174,475.5931,799.817,468.09246,800.27519,460.45418Z" transform="translate(-656.71548 -365.36451)"/><path class="cls-8" d="M1026.84279,681.33418q-1.72005-.02985-3.44008-.05971c-3.55747-2.32932-7.4797-4.16052-10.285-7.51568,5.88228,1.20613,11.84119.85711,17.77395.7671a24.72294,24.72294,0,0,1,8.22477,1.2262C1036.04588,679.85033,1031.10418,679.84575,1026.84279,681.33418Z" transform="translate(-656.71548 -365.36451)"/><path class="cls-3" d="M976.53078,646.58451c4.05045.58308,6.75925,2.95915,8.63146,6.44758A15.51936,15.51936,0,0,1,976.53078,646.58451Z" transform="translate(-656.71548 -365.36451)"/><path class="cls-9" d="M992.54519,658.17162c3.16081-.06525,5.48346.94872,5.81622,4.51061A11.11915,11.11915,0,0,1,992.54519,658.17162Z" transform="translate(-656.71548 -365.36451)"/><path class="cls-9" d="M1000.92426,664.60979c1.02741.02168,2.17988-.1109,1.88454,1.52947C1001.83961,666.03937,1000.94244,665.86373,1000.92426,664.60979Z" transform="translate(-656.71548 -365.36451)"/><path class="cls-3" d="M986.73983,654.27757c1.402.07329,2.75606.21049,2.79615,2.09305A2.36017,2.36017,0,0,1,986.73983,654.27757Z" transform="translate(-656.71548 -365.36451)"/><path class="cls-3" d="M806.03967,496.29346a1.91606,1.91606,0,0,1,1.817-2.30593q-.07875,1.29173-.157,2.58458Q806.86807,496.43335,806.03967,496.29346Z" transform="translate(-656.71548 -365.36451)"/><path class="cls-8" d="M1011.27347,672.37559c.94037-.01337,1.68447.23768,1.79968,1.33529C1012.19433,673.64,1011.431,673.41469,1011.27347,672.37559Z" transform="translate(-656.71548 -365.36451)"/><path class="cls-3" d="M1063.85134,367.67554q-.64054.36627-1.28148.73163Q1063.21018,368.04045,1063.85134,367.67554Z" transform="translate(-656.71548 -365.36451)"/><path class="cls-10" d="M780.05427,534.28215q-1.11862,1.14161-2.23742,2.2823c-7.70445,4.45452-15.21116,9.3047-23.15811,13.27532-12.76927,6.38-25.37742,13.00944-37.6427,20.31326-6.853,4.08077-13.89635,7.84219-20.84991,11.75464a11.269,11.269,0,0,1-5.76217,1.9224c-9.76636,2.27639-11.37909,1.45423-15.79342-7.99554-.631-1.35085-1.28949-2.69432-2.02639-3.98943-3.00794-5.28658-4.19368-5.47375-8.942-1.84757a14.59443,14.59443,0,0,1-3.574,1.45748q-1.11795-1.279-2.23535-2.56c.02214-30.96474-.22832-61.93147.21838-92.88809.14876-10.30889.94024-20.71925,3.49747-30.85582,1.228-4.86783,3.81768-6.21207,8.05249-3.43879a8.63814,8.63814,0,0,0,8.43157.82215c-.55635,8.0715,3.07118,15.19024,5.09242,22.68716,1.87509,6.95483,3.28533,13.82365,2.009,21.3251-1.10905,6.51823-2.59455,13.22633-2.39341,19.80006.41652,13.61395,3.89241,27.0723,2.06831,40.8462-.46882,3.54013.74384,5.15619,4.41033,2.57049a53.96237,53.96237,0,0,1,5.76287-3.30137c12.47688-6.65019,26.19715-10.72423,38.07409-18.6537a43.44811,43.44811,0,0,1,11.88621-5.971,63.95211,63.95211,0,0,1,32.89175-.86586A30.31512,30.31512,0,0,0,780.05427,534.28215Z" transform="translate(-656.71548 -365.36451)"/><path class="cls-11" d="M820.50683,680.29025c-.2135,2.73064-2.24285,2.73136-4.32007,3.302-21.50045,5.90615-40.74866.16743-58.868-11.24178-11.884-7.48295-23.60589-15.22279-35.42082-22.81579-2.2805-1.46565-5.51511-1.37882-6.93869-4.25234.42867-2.05023-2.5206-2.10067-2.38751-4.23226,2.56128.4446,5.0657.89178,7.57459,1.31238,5.9804,1.00264,11.79443,1.87951,16.333-3.91854,1.022-1.30564,3.70867-1.75151,5.65568-1.81851,9.38468-.32272,15.96449-6.972,23.89868-10.4966,6.51594-2.89462,12.37071-7.275,18.51829-10.99665q1.1204-.02139,2.24128-.04312l.04281.04274c-.01072,1.49308-.0332,2.98617-.03,4.47921.01071,5.022,1.63934,9.89284,1.29691,14.97414a3.11786,3.11786,0,0,0,2.99108,3.43669c1.808-.02685,1.24157-1.96549,1.29192-3.15353.087-2.052.98816-4.279.68927-6.01152-.8894-5.15537.19909-11.17536-5.1247-14.839l-.03862-.04045a7.97022,7.97022,0,0,1,3.35931-3.40167c3.117-.55876,4.44218-4.18873,7.70968-4.48964l1.24616,2.343c-2.53864,14.00545-.90116,28.03008.30941,41.97545.62727,7.22588,1.8499,14.67388,6.69095,20.73751C809.72129,676.99176,816.03318,677.30912,820.50683,680.29025Z" transform="translate(-656.71548 -365.36451)"/><path class="cls-6" d="M660.06815,571.455a14.59443,14.59443,0,0,0,3.574-1.45748c4.7483-3.62618,5.934-3.439,8.942,1.84757.7369,1.29511,1.39536,2.63858,2.02639,3.98943,4.41433,9.44977,6.02706,10.27193,15.79342,7.99554-4.19234,4.4101-15.16955,4.90121-20.96465.47347A25.7871,25.7871,0,0,1,660.06815,571.455Z" transform="translate(-656.71548 -365.36451)"/><path class="cls-6" d="M663.51623,584.76053a30.45044,30.45044,0,0,1,3.60629,1.4042c6.32891,3.40639,12.58091,7.01557,21.345,5.12165-6.94648,5.99507-21.09567,1.6626-25.11183-6.364Z" transform="translate(-656.71548 -365.36451)"/><path class="cls-6" d="M663.35566,584.92239l-.40617-.56854q.28271.20431.56608.40764Z" transform="translate(-656.71548 -365.36451)"/><path class="cls-9" d="M803.55757,527.62792c.47726-.1922,1.3683-.56324,1.37347-.55131,3.15835,7.29261,9.7072,5.66065,15.52467,5.92291,13.14063,1.68288,25.303-1.83639,37.558-6.17775,27.81649-9.854,56.47544-15.0176,86.11149-12.58306,13.33562,1.0955,26.66287,2.84517,39.41991,7.06a137.46955,137.46955,0,0,1,20.41049,8.77635c8.28228,4.32843,17.43441,5.14928,26.1919,7.53558,2.67269.72828,4.91508-1.03777,6.173-3.00942,1.2708-1.99178.80828-4.35582-1.69146-5.678-3.23741-2.454-6.53215-4.83767-9.685-7.39581-1.431-1.16109-2.9639-2.78553-1.87953-4.73881,1.26908-2.28617,3.2358-1.03579,4.87547-.18881,4.76793,2.46287,9.10579,5.85376,14.61639,6.69616,8.3828,3.57731,7.87014,10.866,7.86661,18.17342-.00636,13.15919,1.72469,26.27669,1.133,39.45841-.12643,2.8163,2.51757,5.66691-.10621,8.44856-4.56218-7.62459-2.71352-16.53718-5.08563-25.09371-2.52058,7.64792-1.10438,15.13911-1.60612,22.48585-.13667,2.00133,1.2874,4.79369-1.79828,5.77528-2.89473.92084-4.22169-1.16174-5.75074-3.23208-6.39285-8.65628-13.90346-14.68189-25.761-14.95612-7.77632-.17978-15.583-3.18242-22.45726-7.38822a245.37576,245.37576,0,0,0-26.80437-14.63219c-19.44908-8.80826-39.0058-11.6247-59.61508-5.09047-8.2603,2.61891-12.59844,4.47124-16.027,8.25938,20.14379-9.45935,39.53427-11.00957,59.35338-5.00124-5.08666-.19578-10.1882-1.429-15.29693-1.45943-20.534-.12215-39.04769,6.38964-55.91916,17.88862-1.293.88135-2.98683,2.75314-4.28224,1.24258-1.68759-1.96795.09162-3.925,1.75145-5.14784,3.711-2.73409,7.58287-5.25013,11.606-8.00337-2.49978-.91839-4.27978.28028-5.99975,1.27011q-10.88871,6.267-21.69122,12.68339c-10.01507,5.94113-19.277,13.23688-30.64976,16.72056-3.41169,1.04505-7.383,3.01242-10.16966.689-4.6111-3.84464-6.32508-1.15586-8.49033,2.24061-.74854,1.17415-1.55749,2.95579-3.35248,2.20925-1.45144-.60366-.81394-2.32016-.81719-3.54174q-.06987-26.308-.05171-52.61623Q803.04612,531.15311,803.55757,527.62792Z" transform="translate(-656.71548 -365.36451)"/><path class="cls-12" d="M777.83425,520.9716a63.95211,63.95211,0,0,0-32.89175.86586,43.44811,43.44811,0,0,0-11.88621,5.971c-11.87694,7.92947-25.59721,12.00351-38.07409,18.6537a53.96237,53.96237,0,0,0-5.76287,3.30137c-3.66649,2.5857-4.87915.96964-4.41033-2.57049,1.8241-13.7739-1.65179-27.23225-2.06831-40.8462-.20114-6.57373,1.28436-13.28183,2.39341-19.80006,1.27636-7.50145-.13388-14.37027-2.009-21.3251-2.02124-7.49692-5.64877-14.61566-5.09242-22.68716,2.61817-1.12,4.91205-2.99288,7.84855-3.37222a1.97959,1.97959,0,0,0,2.20929-2.16772q.58926-.03136,1.1781-.06267c3.09438.31127,5.76652-1.20342,8.62628-1.94107,6.60346-1.70328,13.73992,2.66506,14.74825,9.54284,1.18885,8.10915,3.74155,15.83025,5.69769,23.72245.69824,2.81707,2.25191,4.91487,4.91532,5.46452,5.53176,1.14154,9.47713,4.31552,13.09505,8.40617,1.89774,2.14573,4.55388,4.57057,7.60852,1.86079,2.32559-2.06307,4.0829-4.77042,6.06308-7.21535.9905-1.22295,1.0137-3.679,3.13872-3.39722,1.84442.24457,1.92778,2.50881,2.77729,3.87994,2.34944,3.79211,2.22285,9.18615,7.29351,11.21471.03645,7.95357,4.56479,13.85059,9.12954,19.69159C775.3386,511.97016,778.63682,515.57845,777.83425,520.9716Z" transform="translate(-656.71548 -365.36451)"/><path class="cls-7" d="M763.23236,488.46964c-5.07066-2.02856-4.94407-7.4226-7.29351-11.21471-.84951-1.37113-.93287-3.63537-2.77729-3.87994-2.125-.28175-2.14822,2.17427-3.13872,3.39722-1.98018,2.44493-3.73749,5.15228-6.06308,7.21535-3.05464,2.70978-5.71078.28494-7.60852-1.86079-3.61792-4.09065-7.56329-7.26463-13.09505-8.40617-2.66341-.54965-4.21708-2.64745-4.91532-5.46452-1.95614-7.8922-4.50884-15.6133-5.69769-23.72245-1.00833-6.87778-8.14479-11.24612-14.74825-9.54284-2.85976.73765-5.5319,2.25234-8.62628,1.94107,2.05823-3.659,6.10541-4.6927,9.422-6.06772a160.87993,160.87993,0,0,0,16.07311-7.64287,364.197,364.197,0,0,1,36.31043-16.90446c6.60867-2.74077,11.4463-8.18931,16.34274-13.31824,2.43539-2.551,5.32364-6.30964,8.743-4.55863,3.94,2.01762,1.20252,6.4173.45191,9.6249-2.06243,8.8134-7.84743,16.33552-8.91708,25.56444-.91449,7.89034-2.952,15.71986-3.14518,23.60924C764.213,460.98693,762.4576,474.69235,763.23236,488.46964Z" transform="translate(-656.71548 -365.36451)"/><path class="cls-3" d="M790.17194,434.63585c-1.71086,1.45592-1.10707,3.45048-1.12061,5.23907-.06633,8.76188-.31431,17.53455.01241,26.28438.4873,13.04955-1.28918,26.00464-1.23207,39.03006.01071,2.4431.15,5.96593-2.90871,6.36325-2.82329.36673-2.95067-2.97348-4.006-5.12607-2.00551-4.09079-2.14046-8.27651-1.88652-12.53444.9117-15.287-2.66068-30.39177-2.104-45.58474.65058-17.75437,1.24234-35.54262,3.9335-53.20193.85091-5.58359.54309-10.80124,7.29916-12.58526,2.62165-.69228,4.58512-.78205,4.089,2.84371-6.0495.61846-8.69963,3.34547-8.7451,9.16-.05831,7.46215-.05042,14.92491-.0496,22.38741q.00054,5.03629.092,10.07241c.0207,1.18773.46883,2.45623,1.67257,2.60173,1.601.19352,1.41376-1.30183,1.55162-2.36985.3793-2.93854.33047-6.02884,1.28107-8.77194,1.10964-3.20209-.5818-7.18825,2.74767-9.709q.30969,2.40195.61936,4.8039l-.06987,3.1692c-2.43567,4.74975-.79223,9.80867-1.11746,14.71838Z" transform="translate(-656.71548 -365.36451)"/><path class="cls-12" d="M790.17194,434.63585q.02922-1.60482.05791-3.21064c4.07163-4.62578,2.25021-9.69772,1.118-14.7174q.03494-1.5846.06885-3.17043c3.88441-1.78917,1.34933-5.32607,2.16787-7.94943,2.85543-.25306,3.379,1.39719,3.333,3.8045-.09221,4.82357-.04218,9.65035-.014,14.47559.03429,5.863-.00427,11.53244,2.42418,17.29941,2.52676,6.0004.54966,12.83343.94733,19.28694-.45817,7.63807,1.89888,15.13871,1.1171,22.79234-.18255,1.78717.59732,3.7807-1.11506,5.24371-2.24511-3.111-6.062-2.06821-8.98273-3.39338.00111-14.89044.02839-29.781-.02842-44.6712C791.25854,438.46848,792.00479,436.28289,790.17194,434.63585Z" transform="translate(-656.71548 -365.36451)"/><path class="cls-10" d="M791.29443,485.09706c2.92077,1.32517,6.73762.28239,8.98273,3.39338q.02643,5.00782.052,10.01631c-.20386,5.00681-.10407,9.96859,2.14184,14.61629-.58492,7.28785-3.96624,12.40444-11.26409,14.47964-1.62942-9.26965-.14595-18.38706,1.06191-27.56585A40.96157,40.96157,0,0,0,791.29443,485.09706Z" transform="translate(-656.71548 -365.36451)"/><path class="cls-1" d="M790.79834,408.73471c-3.32947,2.52072-1.638,6.50688-2.74767,9.709-.9506,2.7431-.90177,5.8334-1.28107,8.77194-.13786,1.068.04943,2.56337-1.55162,2.36985-1.20374-.1455-1.65187-1.414-1.67257-2.60173q-.08793-5.0355-.092-10.07241c-.00082-7.4625-.00871-14.92526.0496-22.38741.04547-5.81457,2.6956-8.54158,8.7451-9.16q.17649,1.7111.35656,3.42457-.36912,2.137-.73635,4.2735c-2.6952,1.94241-2.0401,4.3297-.89613,6.78176Z" transform="translate(-656.71548 -365.36451)"/><path class="cls-7" d="M688.09055,436.99453a1.97959,1.97959,0,0,1-2.20929,2.16772A1.97959,1.97959,0,0,1,688.09055,436.99453Z" transform="translate(-656.71548 -365.36451)"/><path class="cls-8" d="M802.53469,534.67833q.01286,26.30817.05171,52.61623c.00325,1.22158-.63425,2.93808.81719,3.54174,1.795.74654,2.60394-1.0351,3.35248-2.20925,2.16525-3.39647,3.87923-6.08525,8.49033-2.24061,2.78663,2.3234,6.758.356,10.16966-.689,11.37277-3.48368,20.63469-10.77943,30.64976-16.72056q10.8053-6.4099,21.69122-12.68339c1.72-.98983,3.5-2.1885,5.99975-1.27011-4.02318,2.75324-7.89506,5.26928-11.606,8.00337-1.65983,1.22288-3.439,3.17989-1.75145,5.14784,1.29541,1.51056,2.98922-.36123,4.28224-1.24258,16.87147-11.499,35.38514-18.01077,55.91916-17.88862,5.10873.0304,10.21027,1.26365,15.29693,1.45943-19.81911-6.00833-39.20959-4.45811-59.35338,5.00124,3.42857-3.78814,7.76671-5.64047,16.027-8.25938,20.60928-6.53423,40.166-3.71779,59.61508,5.09047a245.37576,245.37576,0,0,1,26.80437,14.63219c6.87422,4.2058,14.68094,7.20844,22.45726,7.38822,11.85755.27423,19.36816,6.29984,25.761,14.95612,1.52905,2.07034,2.856,4.15292,5.75074,3.23208,3.08568-.98159,1.66161-3.774,1.79828-5.77528.50174-7.34674-.91446-14.83793,1.60612-22.48585,2.37211,8.55653.52345,17.46912,5.086,25.09327q.67808,10.02817,1.35521,20.05715c-.83721,6.33372.9481,12.82124-1.12095,19.08274-3.93624-2.039-3.20438-5.7803-3.61433-9.25372-.31349-2.65594,1.20365-9.13515-5.13577-3.47187-.5614.50148-2.23085.70957-2.62919.30689-6.0364-6.10176-13.826-.37173-20.44444-3.16115-4.94109-2.08241-10.15723-2.13238-14.78667,1.61729a4.58553,4.58553,0,0,1-3.22632.493c-10.38423-1.63186-21.09214.1305-31.282-2.43852-5.0719-1.27866-8.99027,1.36645-13.17144,2.31982-2.70972.61785-1.794,6.0679-.43544,8.9049a6.36815,6.36815,0,0,1,.09768,5.69583c-7.013-2.93565-13.65195-6.84143-21.28873-8.1271.13965-.74849-.09317-1.37267-.89221-1.39658-.31643-.00947-.65.55052-.97572.85116q-2.46573-.26255-4.92685-.52289c-2.79988-2.84048-5.61078-2.8161-8.42788-.01665a56.95165,56.95165,0,0,0-27.22725,9.21117c-2.41934-1.27668.58142-3.46387-.927-5.10236-3.24569.3085-6.21955,2.56884-9.95165,1.68794,6.64743-5.06034,13.56728-9.57607,20.5115-14.05415.85384-.55062,2.51062-.35634,2.16711-1.94873-.25965-1.20356-1.46607-1.53327-2.64123-1.677-2.94326-.3599-5.87146-.96893-8.82331-1.10942-10.97246-.52223-21.99783.8991-32.94628-1.08862-3.24376-.58889-6.98329-1.44623-9.87673-.42682-10.23,3.60408-20.10468-.24506-30.10609-.62907-7.13288-.27389-14.4503-2.89239-20.4971,3.24979q-.62309-1.17151-1.24484-2.34259c.772-18.1793-.62308-36.4188,1.43749-54.559C801.05833,545.90475,800.82452,540.16723,802.53469,534.67833Zm109.64474,81.99292c5.10545,1.27449,9.14566-.88654,13.35514-.59234a124.70269,124.70269,0,0,1,12.73322,1.15182,1.26546,1.26546,0,0,0,1.62249-1.11444c.05059-1.07525-.84-1.537-1.61941-2.04613C932.40235,610.23593,918.74571,611.27732,912.17943,616.67125Z" transform="translate(-656.71548 -365.36451)"/><path class="cls-11" d="M1051.68441,628.51577c2.069-6.2615.28374-12.749,1.11937-19.08213,2.9243.35956,5.05538,2.321,7.28338,3.89439,17.02392,12.02187,36.05162,20.17691,55.09123,28.20391,3.25364,1.37175,3.24166,2.46978,2.5314,4.91883-2.44429.57517-4.71,1.44-6.04564,4.0808,6.73488-.45593,12.53169-3.62064,18.489-6.28684q2.12947-.00252,4.259-.0051c-4.06171,5.18324-10.03093,7.88-15.67724,10.29395-14.18765,6.06558-26.162,15.69312-39.47081,23.12453-11.17559,6.2403-22.856,9.52915-35.81993,7.211-5.58439-.99854-11.55385-.033-16.60179-3.53576,4.26184-1.48757,9.20354-1.483,12.27413-5.58123,9.31646-6.7176,11.8011-16.60131,12.34556-27.22869C1051.803,641.86783,1051.62793,635.18587,1051.68441,628.51577Z" transform="translate(-656.71548 -365.36451)"/><path class="cls-7" d="M1067.18209,383.12289c10.38261-2.20427,18.8212,3.50377,27.17046,7.6866,20.87157,10.45641,41.63776,21.19166,61.60021,33.35667,5.54329,3.378,10.79783,7.26146,16.49117,10.34918,3.49456,1.8953,3.17289,6.33983,6.48755,8.05362q.16974,1.06594.34748,2.13363c-7.36481-.46356-13.7772,1.306-18.44138,7.5438-.60268.80593-1.97651,1.00092-2.92331,1.59075-7.49658,4.67012-9.83073,11.05778-6.91375,19.4401a151.46143,151.46143,0,0,0,5.62543,14.55465c4.922,10.50445,5.8043,22.24836,10.42331,32.83186,2.58951,5.93337,6.12008,11.54146,6.65451,18.23019-5.281-3.48617-5.72729-10.09652-9.47219-14.608-4.98291-6.003-5.81266-14.59294-12.07979-19.80665a24.8081,24.8081,0,0,1-8.11374-13.14568c-3.49319-14.12883-13.71818-21.74066-25.223-28.69781-10.70021-6.47064-23.43946-9.73-31.51671-20.4843-2.223-2.95981-4.314-6.04166-6.37837-9.07372-5.23315-7.68635-11.87955-16.013-10.71085-25.13483A46.58578,46.58578,0,0,0,1067.18209,383.12289Z" transform="translate(-656.71548 -365.36451)"/><path class="cls-4" d="M1173.70316,538.89367c-.53382-6.68846-4.06439-12.29655-6.6539-18.22992-4.619-10.5835-5.50126-22.32741-10.42331-32.83186a151.46143,151.46143,0,0,1-5.62543-14.55465c-2.917-8.38232-.58283-14.77,6.91375-19.4401.9468-.58983,2.32063-.78482,2.92331-1.59075,4.66418-6.23778,11.07657-8.00736,18.44138-7.5438,3.37976,5.44309,4.09717,11.67612,4.467,17.76848.9138,15.05461.48664,30.1803.538,45.23482.04039,11.87608,1.5985,23.70859.83755,35.60663-.27142,4.2428.86206,8.57523,1.35425,12.86676q.69372.0039,1.38751.00786c.51444-5.36852,1.44352-10.73469,1.47453-16.106.17134-29.66819.10145-59.33774.17955-89.00667a25.88673,25.88673,0,0,0-1.8682-10.91713c-.48076-1.07314-.706-2.29717.57454-2.89955,1.45357-.68372,2.612.12414,3.15783,1.44854,1.62732,3.9489,3.51229,7.902,3.67392,12.219.33378,8.91752,1.32282,17.78225,1.25218,26.7447-.24275,30.78688-.11056,61.57677-.10741,92.3655.00048,4.7823-.96063,9.57258.10563,14.35461-1.46481,3.20014-4.08937,5.22859-6.99947,6.97063-.08392-1.59636.16573-3.92791-2.45021-1.94344-1.52442,1.15644-2.57644,2.93463-3.84368,4.43287-.42791-.05841-.85316-.11664-1.2784-.17485-.55243-3.40755,2.85246-6.11274,1.71124-9.6248l-.67709-1.42253-.03854.02965q.64763.08233,1.29517.1647c5.25639-2.74038,6.48735-4.91445,5.898-10.45495-1.38491,1.9424-2.75607,3.86552-4.12722,5.78864C1183.51708,564.52983,1173.78421,553.19551,1173.70316,538.89367Z" transform="translate(-656.71548 -365.36451)"/><path class="cls-2" d="M1134.41211,644.23963l-4.26078.00513c-4.3341-.31028-8.1762,2.13918-12.44154,2.206.71026-2.44905.72224-3.54708-2.5314-4.91883-19.03961-8.027-38.06731-16.182-55.09123-28.20391-2.228-1.57338-4.35908-3.53483-7.28341-3.89439q-.67492-10.02972-1.3536-20.05776c2.62337-2.78121-.02063-5.63182.1058-8.44812.59169-13.18172-1.13936-26.29922-1.133-39.45841.00353-7.30744.51619-14.59611-7.86661-18.17342a3.97076,3.97076,0,0,1,5.11917-.73077q26.39014,15.07639,52.63448,30.40683c.362.21049.38975.99479.57314,1.51258a2.48935,2.48935,0,0,0,1.32426,2.2323c18.87094,10.69584,37.52477,21.78318,56.97672,31.4283,4.05117,5.22609,10.50423,3.65527,15.73207,5.55117q2.781.07233,5.56184.14459-.026,1.62965-.05189,3.25927-.45263.65855-.90546,1.3171c-3.092.68474-4.2323,2.86787-4.43712,5.76929a4.46576,4.46576,0,0,1-2.26976,3.19908c-5.232.94642-7.22831,5.9834-11.02181,8.78814-7.99152,5.90872-16.8816,10.52687-24.38845,17.11048-.70417.61755-1.47689,1.12717-1.14444,2.59149,3.94274.00571,7.64873-2.32228,11.69463-1.716l.006.00595C1143.66244,637.81716,1139.85124,642.12117,1134.41211,644.23963Z" transform="translate(-656.71548 -365.36451)"/><path class="cls-10" d="M1044.76631,516.4649q.07932-19.60059.15754-39.2009c2.8976.41288,1.358-4.72347,3.68675-3.56555,3.603,1.79141,2.70152-.98541,3.1233-2.37626,1.3447-4.4342,2.512-8.92263,3.88705-13.34688.51047-1.64247,1.52675-2.97511,3.56617-3.04288a2.76182,2.76182,0,0,1,2.9103,2.15411c2.81939,9.72389,10.55974,17.183,11.96977,27.71365,1.338,9.99292,7.87045,16.43422,17.23007,20.18248,17.59309,7.04549,32.37292,18.66632,47.356,29.84011,6.97824,5.204,13.03651,11.77,20.80376,15.80505,12.234,6.35544,19.48012,16.60449,24.50431,28.89389q-.09076.87374-.1814,1.74754-.52512.6942-1.05038,1.38837l.03854-.02961c-4.39673.05153-7.84077,3.70828-12.36887,3.26261-3.39708-6.71585-7.84837-12.17059-14.82449-15.82132-18.0145-9.42741-36.75362-17.09544-55.59406-24.65068a239.22033,239.22033,0,0,1-29.49418-14.58114c-6.44737-3.6867-8.39108-10.87657-8.72274-17.78011-.31346-6.52366-5.0626-11.955-3.8504-18.73823.19565-1.09482-1.56632-2.12492-2.9653-1.872-1.47972.2676-1.09781,1.71764-1.161,2.75994-.404,6.66239-.7426,13.329-1.1814,19.98894-.09135,1.38645.76215,3.24367-.96545,4.02342-1.45669.65746-2.219-1.00025-3.17509-1.76752A5.89876,5.89876,0,0,0,1044.76631,516.4649Z" transform="translate(-656.71548 -365.36451)"/><path class="cls-11" d="M1170.39924,585.89063c4.5281.44567,7.97214-3.21108,12.36887-3.26261.22577.47415.45146.9483.672,1.41788-3.05022.46659-4.6212,3.41161-7.37165,4.37723-5.66425,2.09523-11.286,1.61561-16.88424-.27875-19.45209-9.64433-38.10592-20.73167-56.97686-31.42751a2.48935,2.48935,0,0,1-1.32426-2.2323c4.38383-.46913,7.95766,1.70846,11.50521,3.71061,14.24659,8.04041,28.80116,15.55687,42.48728,24.55834C1159.67583,585.91067,1164.90346,586.43558,1170.39924,585.89063Z" transform="translate(-656.71548 -365.36451)"/><path class="cls-3" d="M1179.52067,598.4173q.45283-.65856.90587-1.31662c1.64826-.459,2.17756-1.80767,2.58856-3.25031,1.26457-1.49845,2.31659-3.27664,3.841-4.43308,2.61594-1.98447,2.36629.34708,2.45021,1.94344-.64662,10.84915-8.02779,16.90475-16.05736,22.491-1.31947.918-2.52284,2.20361-4.49681,1.71352-.50349-3.70692,3.94746-4.88565,4.06013-8.18052a4.4542,4.4542,0,0,0,2.26984-3.20027C1178.21229,603.53053,1178.80737,600.92845,1179.52067,598.4173Z" transform="translate(-656.71548 -365.36451)"/><path class="cls-2" d="M1147.95372,634.1598q.12764-.23961.25516-.47925l-.24921.48516Z" transform="translate(-656.71548 -365.36451)"/><path class="cls-2" d="M802.53469,534.67833c-1.71017,5.4889-1.47636,11.22642-2.115,16.849-2.06057,18.14021-.66546,36.37971-1.43749,54.559-3.26882.3005-4.594,3.93047-7.711,4.48923,1.62113-18.02326.78841-36.1,1.28919-54.14433.17393-6.267,1.59754-12.4135.03678-18.77507-.85611-3.48952,5.33489-8.71212,10.96121-10.02737Q803.04573,531.15264,802.53469,534.67833Z" transform="translate(-656.71548 -365.36451)"/><path class="cls-4" d="M788.3307,537.74007c.895,4.31287,1.88156,7.78273,1.85278,11.52559-.11326,14.73143-.04969,29.46417-.1184,44.19612-.00984,2.1108.78679,5.07049-2.23807,5.57535-3.28166.54765-3.93349-2.62034-4.26625-4.82091-1.49624-9.895-2.95884-19.87857-1.81639-29.87021a120.15319,120.15319,0,0,0,.58028-12.22295C782.4229,544.364,782.33818,544.36291,788.3307,537.74007Z" transform="translate(-656.71548 -365.36451)"/><path class="cls-12" d="M802.471,513.123c-2.24591-4.6477-2.3457-9.60948-2.14184-14.61629q1.66281.04647,3.32452.09487C803.15574,503.43392,802.08932,508.21961,802.471,513.123Z" transform="translate(-656.71548 -365.36451)"/><path class="cls-11" d="M786.7932,615.089q.5595-.55575,1.11883-1.11164l.03834.04011q-.55727.55687-1.11435,1.11431Z" transform="translate(-656.71548 -365.36451)"/><path class="cls-12" d="M1183.96135,579.52172c-5.02419-12.2894-12.27029-22.53845-24.50431-28.89389-7.76725-4.03508-13.82552-10.601-20.80376-15.80505-14.9831-11.17379-29.76293-22.79462-47.356-29.84011-9.35962-3.74826-15.89208-10.18956-17.23007-20.18248-1.41-10.53065-9.15038-17.98976-11.96977-27.71365a2.76182,2.76182,0,0,0-2.9103-2.15411c-2.03942.06777-3.0557,1.40041-3.56617,3.04288-1.37509,4.42425-2.54235,8.91268-3.88705,13.34688-.42178,1.39085.4797,4.16767-3.1233,2.37626-2.3288-1.15792-.78915,3.97843-3.68675,3.56555q.00278-1.14678.0024-2.29224a2.83941,2.83941,0,0,0,.04224-4.3286c.00517-22.39329-.3111-44.79325.15488-67.177.22357-10.73886,3.68836-20.71156,11.77136-28.493,3.28112,2.901,6.24861,6.20075,10.28763,8.15a46.58659,46.58659,0,0,1,3.02681,24.81969c-1.1687,9.12183,5.4777,17.44848,10.71085,25.13483,2.06437,3.03206,4.15533,6.11391,6.37837,9.07372,8.07725,10.75429,20.8165,14.01366,31.51671,20.4843,11.50477,6.95715,21.72976,14.569,25.223,28.69781a24.8081,24.8081,0,0,0,8.11374,13.14568c6.26713,5.21371,7.09688,13.80361,12.07979,19.80665,3.7449,4.51149,4.19123,11.12184,9.47219,14.608.08044,14.30157,9.81331,25.63589,12.09389,39.26157C1185.57785,579.13549,1184.71367,579.2535,1183.96135,579.52172Z" transform="translate(-656.71548 -365.36451)"/><path class="cls-10" d="M1044.96849,470.64316a2.83941,2.83941,0,0,1-.04224,4.3286Q1044.94838,472.80671,1044.96849,470.64316Z" transform="translate(-656.71548 -365.36451)"/><path class="cls-5" d="M800.227,608.42894c6.0468-6.14218,13.36422-3.52368,20.4971-3.24979,10.00141.384,19.87613,4.23315,30.10609.62907,2.89344-1.01941,6.633-.16207,9.87673.42682,10.94845,1.98772,21.97382.56639,32.94628,1.08862,2.95185.14049,5.88.74952,8.82331,1.10942,1.17516.14373,2.38158.47344,2.64123,1.677.34351,1.59239-1.31327,1.39811-2.16711,1.94873-6.94422,4.47808-13.86407,8.99381-20.5115,14.05415,3.7321.8809,6.706-1.37944,9.95165-1.68794,1.50844,1.63849-1.49232,3.82568.927,5.10236-12.8741,11.74411-27.17337,21.66-41.185,31.94031-6.71457,4.92645-12.5916,10.99254-20.13032,14.79121-8.55731-.26025-16.93291-1.39828-24.77514-5.117-4.841-6.06363-6.06368-13.51163-6.69095-20.73751C799.32584,636.459,797.68836,622.43439,800.227,608.42894Z" transform="translate(-656.71548 -365.36451)"/><path class="cls-8" d="M807.22736,671.1419c7.84223,3.71872,16.21783,4.85675,24.77514,5.117.07407.54744.14894,1.08965.22433,1.632a21.7981,21.7981,0,0,1-11.72026,2.39737C816.03318,677.30912,809.72129,676.99176,807.22736,671.1419Z" transform="translate(-656.71548 -365.36451)"/><path class="cls-9" d="M920.54505,620.31621c2.8171-2.79945,5.628-2.82383,8.42788.01665A16.9157,16.9157,0,0,1,920.54505,620.31621Z" transform="translate(-656.71548 -365.36451)"/><path class="cls-9" d="M933.89978,620.85578c.32574-.30067.65929-.86066.97572-.85119.799.02391,1.03186.64809.89221,1.39658C934.95669,621.85545,934.29948,621.7966,933.89978,620.85578Z" transform="translate(-656.71548 -365.36451)"/><path class="cls-4" d="M790.79834,408.73471q.08694-4.44549.17567-8.88922.72055.03291,1.43756.06231c1.90344,1.58155.8193,3.77851,1.17246,5.67983-.818,2.62368,1.71706,6.16058-2.16735,7.94975Q791.10855,411.13728,790.79834,408.73471Z" transform="translate(-656.71548 -365.36451)"/><path class="cls-3" d="M792.41157,399.9078q-.71788-.0303-1.43756-.06231c-1.14575-2.45384-1.80085-4.84113.89435-6.78354C792.89986,395.2761,792.21945,397.62676,792.41157,399.9078Z" transform="translate(-656.71548 -365.36451)"/><path class="cls-6" d="M786.836,615.13177q.55713-.5573,1.11435-1.11431c5.32389,3.6639,4.2354,9.68389,5.1248,14.83926.29889,1.73247-.60227,3.95951-.68927,6.01152-.05035,1.188.516,3.12668-1.29192,3.15353a3.11786,3.11786,0,0,1-2.99108-3.43669c.34243-5.0813-1.2862-9.95217-1.29691-14.97414C786.80281,618.1179,786.82529,616.62481,786.836,615.13177Z" transform="translate(-656.71548 -365.36451)"/><path class="cls-4" d="M791.34783,416.70781c1.13223,5.01968,2.95365,10.09162-1.118,14.7174C790.5556,426.51648,788.91216,421.45756,791.34783,416.70781Z" transform="translate(-656.71548 -365.36451)"/><path class="cls-9" d="M912.17943,616.67125c6.56628-5.39393,20.22292-6.43532,26.09144-2.60109.77943.50917,1.67.97088,1.61941,2.04613a1.26546,1.26546,0,0,1-1.62249,1.11444,124.70269,124.70269,0,0,0-12.73322-1.15182C921.32509,615.78471,917.28488,617.94574,912.17943,616.67125Z" transform="translate(-656.71548 -365.36451)"/><path class="cls-6" d="M1117.70979,646.45077c4.26534-.06683,8.10744-2.51629,12.44154-2.206-5.95549,2.66617-11.7523,5.83088-18.48718,6.28681C1112.99981,647.89081,1115.2655,647.02594,1117.70979,646.45077Z" transform="translate(-656.71548 -365.36451)"/><path class="cls-10" d="M1176.06855,588.42313c2.75039-.96562,4.32137-3.91064,7.37159-4.37723,1.14635,3.51667-2.25854,6.22186-1.70727,9.63095q-.62862.08357-1.25485.16408-2.781-.07227-5.56225-.14325Q1175.49181,591.06173,1176.06855,588.42313Z" transform="translate(-656.71548 -365.36451)"/><path class="cls-2" d="M1183.96135,579.52172c.75232-.26822,1.6165-.38623,1.83631-1.36618,1.3691-1.92264,2.74026-3.84576,4.12517-5.78816.58933,5.5405-.64163,7.71457-5.89987,10.45344q-.12332-.77724-.24308-1.55159Q1183.87065,580.3955,1183.96135,579.52172Z" transform="translate(-656.71548 -365.36451)"/><path class="cls-6" d="M1180.478,593.84093q.62688-.08125,1.25485-.16408c.4264.05667.85165.1149,1.27956.17331-.40833,1.44285-.93763,2.79148-2.58589,3.25052Q1180.4519,595.4703,1180.478,593.84093Z" transform="translate(-656.71548 -365.36451)"/><path class="cls-11" d="M1183.77988,581.26926q.12064.775.24308,1.55156-.64475-.08011-1.29332-.16319Q1183.25476,581.96347,1183.77988,581.26926Z" transform="translate(-656.71548 -365.36451)"/><path class="cls-6" d="M1176.06855,588.42313q-.57656,2.63793-1.15278,5.27455c-5.22743-1.89724-11.68049-.32642-15.73166-5.55251C1164.7825,590.03874,1170.40424,590.51836,1176.06855,588.42313Z" transform="translate(-656.71548 -365.36451)"/><path class="cls-6" d="M1179.52067,598.4173c-.7133,2.51115-1.30838,5.11323-4.43855,5.76717C1175.28837,601.28517,1176.4287,599.102,1179.52067,598.4173Z" transform="translate(-656.71548 -365.36451)"/></svg>